inDegrees=no
num_controls=7
num_derivatives=13
num_iterations=123
num_multipliers=7
num_parameters=0
num_slacks=7
num_states=26
objective=1.103196
objective_accelerations=0.159131
objective_balance=0.005020
objective_effort=0.035261
objective_height=0.897912
objective_ligament=0.005872
solver_duration=1701.760892
status=Solve_Succeeded
success=true
DataType=double
version=3
OpenSimVersion=4.5
endheader
time	/jointset/ground_pelvis/pelvis_tilt/value	/jointset/ground_pelvis/pelvis_tx/value	/jointset/ground_pelvis/pelvis_ty/value	/jointset/hip_l/hip_flexion_l/value	/jointset/hip_l/hip_adduction_l/value	/jointset/hip_l/hip_rotation_l/value	/jointset/back/lumbar_extension/value	/jointset/patellofemoral_l/patellar_flexion_l/value	/jointset/knee_l/knee_flexion_l/value	/jointset/knee_l/knee_adduction_l/value	/jointset/knee_l/knee_rotation_l/value	/jointset/ankle_l/ankle_angle_l/value	/jointset/subtalar_l/subtalar_angle_l/value	/jointset/ground_pelvis/pelvis_tilt/speed	/jointset/ground_pelvis/pelvis_tx/speed	/jointset/ground_pelvis/pelvis_ty/speed	/jointset/hip_l/hip_flexion_l/speed	/jointset/hip_l/hip_adduction_l/speed	/jointset/hip_l/hip_rotation_l/speed	/jointset/back/lumbar_extension/speed	/jointset/patellofemoral_l/patellar_flexion_l/speed	/jointset/knee_l/knee_flexion_l/speed	/jointset/knee_l/knee_adduction_l/speed	/jointset/knee_l/knee_rotation_l/speed	/jointset/ankle_l/ankle_angle_l/speed	/jointset/subtalar_l/subtalar_angle_l/speed	/forceset/tau_hip_flexion_l	/forceset/tau_hip_adduction_l	/forceset/tau_hip_rotation_l	/forceset/tau_knee_flexion_l	/forceset/tau_ankle_angle_l	/forceset/tau_subtalar_angle_l	/forceset/tau_lumbar_extension	lambda_cid13_p0	lambda_cid13_p1	lambda_cid13_p2	lambda_cid13_p3	lambda_cid13_p4	lambda_cid13_p5	lambda_cid14_p0	/jointset/ground_pelvis/pelvis_tilt/accel	/jointset/ground_pelvis/pelvis_tx/accel	/jointset/ground_pelvis/pelvis_ty/accel	/jointset/hip_l/hip_flexion_l/accel	/jointset/hip_l/hip_adduction_l/accel	/jointset/hip_l/hip_rotation_l/accel	/jointset/back/lumbar_extension/accel	/jointset/patellofemoral_l/patellar_flexion_l/accel	/jointset/knee_l/knee_flexion_l/accel	/jointset/knee_l/knee_adduction_l/accel	/jointset/knee_l/knee_rotation_l/accel	/jointset/ankle_l/ankle_angle_l/accel	/jointset/subtalar_l/subtalar_angle_l/accel	gamma_cid13_p0	gamma_cid13_p1	gamma_cid13_p2	gamma_cid13_p3	gamma_cid13_p4	gamma_cid13_p5	gamma_cid14_p0
0	-0.01831853473609346	0.05956248268871264	0.8951192312456204	0.1955287580552426	-0.3296304553490536	-0.3157351546418595	-0.1379045077516729	0.07015288079084432	0.07015288079084844	-0.174532172826527	0.04130155760348223	-0.06701059314715049	-0.006347799024608252	0	0	0	0	0	0	0	0	0	0	0	0	0	0.07753239921373715	-0.04015301058306885	0.01571054325067826	-0.1375017855858966	0.04389646410235255	-0.02872050408051318	-0.04096554243482952	-19.83111698254372	16.94424780207182	-4.177990051604151	49.80456073962458	-484.795424451653	-56.49908941241421	-36.99712463061465	-4.781047298312196	-3.635481360503026	-1.671107127376	22.13476378023753	-2.675109137589915	4.523095681926591	-4.783184024374183	22.61159668034948	22.61159668034959	1.723947545302051	-4.165356982277134	6.155761661097976	0.3859971210906377	3.991701600488061e-08	1.438491954757795e-07	5.651815577670809e-07	-7.301222602022825e-08	3.248897386615143e-07	-4.109071215975506e-07	-3.843328736716168e-08
0.01	-0.01853970013216687	0.05938409650215822	0.8950384051732261	0.1965940690147361	-0.329762812475997	-0.3155079568009895	-0.1381551489524517	0.07125108226855813	0.07125108226856672	-0.1744529300176225	0.04110598012063019	-0.0667127539348433	-0.006332377937914773	-0.04401957806762862	-0.03540724494860043	-0.01612279485789259	0.2118361711521815	-0.02626316341832072	0.0451926949268334	-0.04962637611508161	0.218381006703477	0.2183810067034795	0.01586693708817204	-0.0388504965368088	0.05929859852364074	0.003165473711901325	0.07508889768996835	-0.04279468733981542	0.01560005934020553	-0.1393217699985194	0.0470886346646105	-0.02536849430932825	-0.03807546978424273	-18.73033312722882	15.47786065222051	-4.152240056962976	47.37316869145192	-486.4960290039933	-58.91849128201078	-37.02035163960851	-4.180409165239189	-3.452861810004344	-1.57643774392156	20.52412475464032	-2.570809697452529	4.480243250975073	-4.977084798984753	21.26246702636072	21.26246702636062	1.520926856664925	-3.705067773698852	5.776549592450456	0.2939189809630827	-7.069715518010665e-08	2.362566325092997e-07	9.346955839718838e-07	7.45970291510234e-08	-4.905154478678386e-07	-7.762503924105373e-07	-5.350424528382047e-08
0.02	-0.01919466052976843	0.05885973471652486	0.894797636736467	0.1997409578801335	-0.3301515791878221	-0.3148362546402675	-0.1388869979931658	0.07449531668548875	0.07449531668548762	-0.1742144458245289	0.04052986331547068	-0.06583000060840839	-0.006282882817157659	-0.08675900030527786	-0.06919511981578678	-0.0319884728729254	0.4163155811816499	-0.05128191697662134	0.08890086397019668	-0.09624156798655174	0.429206587847506	0.4292065878474922	0.03184827681994356	-0.07610786444625714	0.1169828228254125	0.006814806812726025	0.07264539616611033	-0.04543636409654769	0.01548957543003959	-0.1411417544112776	0.05028080522682826	-0.02201648453815323	-0.03518539713369583	-17.48298251652657	13.97704448848739	-4.110995994354661	44.54630928776385	-486.0211488409852	-61.09631950672253	-37.08796919563041	-4.52501613231636	-3.311607344220163	-1.619683758804052	20.66341155569488	-2.426227165585997	4.226190505232566	-4.180947175651898	21.10051156845987	21.10051156845621	1.746828074021745	-3.846731256805044	5.832886816724217	0.4827689988752256	-1.813113263650939e-07	3.2866406954282e-07	1.304209610176686e-06	2.22206284322275e-07	-1.305920634397192e-06	-1.141593663223524e-06	-6.857520320047926e-08
0.03	-0.02027234882429672	0.05800564286845471	0.8943982594318836	0.204899464752821	-0.330783822234062	-0.3137354118183967	-0.1400674893678462	0.07981241389877886	0.07981241389877543	-0.1738140842105295	0.0395881020458952	-0.06437765982579302	-0.006193512478285508	-0.1285069152705278	-0.1013387362351589	-0.0479328387934005	0.6141016959296935	-0.07494453847276174	0.1310447969616992	-0.1393521909176589	0.6329269502775385	0.6329269502774914	0.04824576488651953	-0.111923036967808	0.1732024937116872	0.01114729929385404	0.06890732279738188	-0.04604675707946686	0.01559034580012846	-0.142535092870951	0.05325005127159028	-0.020349721381291	-0.03155289844347858	-16.3094682611308	13.14106242738758	-4.084362315984086	42.10515241320757	-484.4737988239573	-61.66095607002796	-37.19525442662137	-3.9589238261912	-3.123016718573086	-1.588955099818205	19.14356981676807	-2.30322154436798	4.174868960453256	-4.300442447129503	19.81492667602807	19.81492667602736	1.589707382625671	-3.400525915885149	5.474117718904163	0.4214888786008929	-2.296844454107251e-07	3.661983963686911e-07	1.355934417485723e-06	3.029928485318578e-07	-1.65524338735565e-06	-1.211801556505728e-06	-6.37944941565981e-08
0.04	-0.02175936519799021	0.05683865927063542	0.8938380100498654	0.2119973044494765	-0.3316460798758121	-0.3122198548137436	-0.1416639514908946	0.08712814035553215	0.08712814035553232	-0.1732490480739366	0.03829786591794655	-0.06237160023544976	-0.006058217313428241	-0.1686246161382598	-0.1317734697656126	-0.06416288835987213	0.8041821459740905	-0.09728483607849961	0.171843700526972	-0.1794357176603453	0.8289324365376958	0.8289324365377146	0.06478318133909537	-0.1458028361315623	0.2277265843709644	0.01599977200975035	0.06516924942873248	-0.04665715006239401	0.01569111617000027	-0.1439284313305499	0.05621929731636732	-0.01868295822442657	-0.02792039975320402	-15.01101490165803	12.27367827294849	-4.04184684880918	39.3195612890183	-481.0715739049058	-62.00581081378537	-37.33605625173256	-4.198973312812805	-2.969830766436441	-1.67682048800336	19.12227861496557	-2.161762387505544	3.957184619986596	-3.575527937967746	19.5575363344848	19.55753633450099	1.774813751221619	-3.459656585245722	5.493770771324743	0.5867650458288473	-2.767742437936892e-07	4.026013188603839e-07	1.401106869765982e-06	3.824016252989319e-07	-1.994956193230172e-06	-1.275924184271834e-06	-5.860447239188106e-08
